<?xml version="1.0" standalone="no"?>
<!DOCTYPE svg PUBLIC "-//W3C//DTD SVG 20010904//EN"
 "http://www.w3.org/TR/2001/REC-SVG-20010904/DTD/svg10.dtd">
<svg version="1.0" xmlns="http://www.w3.org/2000/svg"
 width="512.000000pt" height="512.000000pt" viewBox="0 0 512.000000 512.000000"
 preserveAspectRatio="xMidYMid meet">
<metadata>
Created by potrace 1.11, written by Peter Selinger 2001-2013
</metadata>
<g transform="translate(0.000000,512.000000) scale(0.100000,-0.100000)"
fill="#000000" stroke="none">
<path d="M3315 4815 c-17 -8 -66 -28 -110 -45 -89 -34 -174 -83 -249 -142 -70
-55 -157 -137 -188 -178 -39 -51 -130 -239 -188 -387 -74 -189 -153 -310 -248
-383 -42 -33 -156 -80 -192 -80 -18 0 -17 -3 7 -57 44 -102 50 -117 66 -168
27 -90 37 -139 42 -198 3 -56 3 -58 -18 -51 -78 23 -232 134 -323 233 l-40 44
-90 -13 c-49 -6 -102 -14 -119 -16 -124 -20 -273 5 -528 91 -76 26 -142 45
-148 43 -5 -2 9 -35 32 -73 22 -39 51 -88 64 -110 12 -22 39 -69 60 -105 64
-113 231 -454 254 -518 44 -128 55 -203 66 -449 11 -232 62 -396 181 -574 56
-85 67 -93 60 -43 -4 22 -11 66 -16 99 -5 33 -12 78 -15 100 -3 22 -10 63 -15
90 -20 110 -24 143 -24 210 1 72 12 240 20 285 2 14 6 77 10 140 5 92 2 138
-15 231 -19 110 -19 183 0 195 12 7 174 -23 196 -36 10 -7 29 -30 43 -52 49
-77 166 -170 300 -238 25 -12 46 -23 47 -24 2 -2 -15 -74 -37 -162 -22 -87
-56 -231 -75 -319 -31 -145 -39 -188 -61 -335 -7 -51 -7 -197 1 -209 2 -5 7
-34 10 -65 28 -320 161 -691 394 -1096 68 -117 110 -178 97 -140 -3 8 -8 33
-11 55 -3 22 -10 69 -16 105 -6 36 -12 76 -14 90 -2 14 -6 48 -10 75 -4 28 -9
57 -10 65 -2 9 -6 43 -10 75 -4 33 -9 69 -11 80 -2 11 -6 45 -10 75 -3 30 -7
65 -9 78 -6 35 -18 173 -19 207 0 44 14 325 19 360 2 17 6 53 9 80 3 28 8 59
10 70 2 11 7 40 11 65 11 73 62 261 96 351 47 127 80 271 95 407 3 32 9 89 14
127 10 85 4 258 -15 420 -8 68 -16 205 -13 205 2 0 31 -25 63 -56 79 -72 205
-156 278 -183 98 -36 104 -36 381 -28 l70 2 8 -33 c6 -21 3 -64 -7 -125 -18
-98 -27 -156 -27 -172 -1 -17 14 -229 17 -247 5 -24 15 -150 19 -243 2 -44 0
-105 -5 -135 -5 -30 -11 -73 -14 -95 -3 -22 -8 -47 -10 -55 -2 -8 -7 -35 -10
-60 -4 -25 -10 -63 -15 -85 -28 -127 -21 -165 17 -92 9 17 40 69 70 115 98
150 128 282 139 610 7 206 45 328 200 633 65 128 226 417 271 485 24 37 29 38
-179 -27 -87 -27 -168 -51 -180 -53 -13 -3 -55 -12 -95 -20 -92 -20 -283 -16
-368 9 -87 25 -244 105 -281 143 -63 65 -134 254 -134 359 0 108 52 277 140
455 68 138 121 207 269 354 35 35 62 66 60 68 -2 3 -18 -2 -34 -9z"/>
</g>
</svg>
